<?xml version="1.0" encoding="utf-8"?>
<!-- Generator: Adobe Illustrator 22.0.1, SVG Export Plug-In . SVG Version: 6.00 Build 0)  -->
<svg version="1.1" id="Laag_1" xmlns="http://www.w3.org/2000/svg" xmlns:xlink="http://www.w3.org/1999/xlink" x="0px" y="0px"
	 viewBox="0 0 24.3 77.1" style="enable-background:new 0 0 24.3 77.1;" xml:space="preserve">
<style type="text/css">
	.st0{clip-path:url(#SVGID_2_);}
	.st1{clip-path:url(#SVGID_4_);fill:#565656;}
	.st2{clip-path:url(#SVGID_6_);}
	.st3{clip-path:url(#SVGID_8_);fill:#FFFFFF;}
	.st4{clip-path:url(#SVGID_10_);}
	.st5{clip-path:url(#SVGID_12_);fill:#13A89E;}
	.st6{clip-path:url(#SVGID_14_);}
	.st7{clip-path:url(#SVGID_16_);fill:none;stroke:#FFFFFF;stroke-width:4;stroke-miterlimit:10;}
	.st8{clip-path:url(#SVGID_18_);}
	.st9{clip-path:url(#SVGID_20_);fill:#565656;}
	.st10{clip-path:url(#SVGID_22_);}
	.st11{clip-path:url(#SVGID_24_);fill:#FFFFFF;}
	.st12{clip-path:url(#SVGID_26_);fill:#565656;}
	.st13{clip-path:url(#SVGID_28_);fill:#FFFFFF;}
	.st14{clip-path:url(#SVGID_30_);fill:#00A1B2;}
</style>
<g>
	<defs>
		<circle id="SVGID_1_" cx="12.3" cy="14.2" r="9.5"/>
	</defs>
	<clipPath id="SVGID_2_">
		<use xlink:href="#SVGID_1_"  style="overflow:visible;"/>
	</clipPath>
	<g class="st0">
		<defs>
			<rect id="SVGID_3_" x="2.8" y="4.7" width="22" height="19"/>
		</defs>
		<clipPath id="SVGID_4_">
			<use xlink:href="#SVGID_3_"  style="overflow:visible;"/>
		</clipPath>
		<rect x="-2.2" y="-0.3" class="st1" width="29" height="29"/>
	</g>
</g>
<g>
	<defs>
		<circle id="SVGID_5_" cx="12.3" cy="14.2" r="7.7"/>
	</defs>
	<clipPath id="SVGID_6_">
		<use xlink:href="#SVGID_5_"  style="overflow:visible;"/>
	</clipPath>
	<g class="st2">
		<defs>
			<rect id="SVGID_7_" x="2.8" y="4.7" width="22" height="19"/>
		</defs>
		<clipPath id="SVGID_8_">
			<use xlink:href="#SVGID_7_"  style="overflow:visible;"/>
		</clipPath>
		<rect x="-0.4" y="1.6" class="st3" width="25.3" height="25.3"/>
	</g>
</g>
<g>
	<defs>
		<path id="SVGID_9_" d="M11.6,14.8l8-8.6c0.6-0.5,1.5-0.5,2,0l0,0L22.5,7c0.6,0.6,0.6,1.5,0,2l-9.2,9.8c-0.6,0.5-1.5,0.5-2,0
			l-4.7-4.4c-0.6-0.6-0.6-1.5,0-2.1l0.9-0.8c0.6-0.5,1.5-0.5,2,0l3.5,3.2l0,0L11.6,14.8L11.6,14.8z"/>
	</defs>
	<clipPath id="SVGID_10_">
		<use xlink:href="#SVGID_9_"  style="overflow:visible;"/>
	</clipPath>
	<g class="st4">
		<defs>
			<rect id="SVGID_11_" x="2.8" y="4.7" width="22" height="19"/>
		</defs>
		<clipPath id="SVGID_12_">
			<use xlink:href="#SVGID_11_"  style="overflow:visible;"/>
		</clipPath>
		<rect x="2.2" y="1.8" class="st5" width="24.8" height="21.4"/>
	</g>
</g>
<g>
	<defs>
		<path id="SVGID_13_" d="M20.9,6.9c-0.2-0.2-0.5-0.2-0.6,0l-8,8.6l-3.5-3.2c-0.2-0.2-0.5-0.2-0.6,0l-0.9,0.8
			c-0.2,0.2-0.2,0.5,0,0.6l4.6,4.4c0.2,0.2,0.5,0.2,0.6,0l9.2-9.7c0.2-0.2,0.2-0.5,0-0.6L20.9,6.9z M-4.8-5.2h38.8v35.4H-4.8V-5.2z"
			/>
	</defs>
	<clipPath id="SVGID_14_">
		<use xlink:href="#SVGID_13_"  style="overflow:visible;"/>
	</clipPath>
	<g class="st6">
		<defs>
			<rect id="SVGID_15_" x="2.8" y="4.7" width="22" height="19"/>
		</defs>
		<clipPath id="SVGID_16_">
			<use xlink:href="#SVGID_15_"  style="overflow:visible;"/>
		</clipPath>
		<path class="st7" d="M20.9,6.9c-0.2-0.2-0.5-0.2-0.6,0l-8,8.6l-3.5-3.2c-0.2-0.2-0.5-0.2-0.6,0l-0.9,0.8c-0.2,0.2-0.2,0.5,0,0.6
			l4.6,4.4c0.2,0.2,0.5,0.2,0.6,0l9.2-9.7c0.2-0.2,0.2-0.5,0-0.6L20.9,6.9z"/>
	</g>
</g>
<g>
	<defs>
		<circle id="SVGID_17_" cx="12.3" cy="38.2" r="9.5"/>
	</defs>
	<clipPath id="SVGID_18_">
		<use xlink:href="#SVGID_17_"  style="overflow:visible;"/>
	</clipPath>
	<g class="st8">
		<defs>
			<rect id="SVGID_19_" x="2.8" y="28.7" width="19" height="19"/>
		</defs>
		<clipPath id="SVGID_20_">
			<use xlink:href="#SVGID_19_"  style="overflow:visible;"/>
		</clipPath>
		<rect x="-2.2" y="23.7" class="st9" width="29" height="29"/>
	</g>
</g>
<g>
	<defs>
		<circle id="SVGID_21_" cx="12.3" cy="38.2" r="7.7"/>
	</defs>
	<clipPath id="SVGID_22_">
		<use xlink:href="#SVGID_21_"  style="overflow:visible;"/>
	</clipPath>
	<g class="st10">
		<defs>
			<rect id="SVGID_23_" x="2.8" y="28.7" width="19" height="19"/>
		</defs>
		<clipPath id="SVGID_24_">
			<use xlink:href="#SVGID_23_"  style="overflow:visible;"/>
		</clipPath>
		<rect x="-0.4" y="25.6" class="st11" width="25.3" height="25.3"/>
	</g>
</g>
<g>
	<defs>
		<circle id="SVGID_25_" cx="12.1" cy="62.2" r="9.5"/>
	</defs>
	<clipPath id="SVGID_26_">
		<use xlink:href="#SVGID_25_"  style="overflow:visible;"/>
	</clipPath>
	<rect x="-2.4" y="47.7" class="st12" width="29" height="29"/>
</g>
<g>
	<defs>
		<circle id="SVGID_27_" cx="12.1" cy="62.2" r="7.7"/>
	</defs>
	<clipPath id="SVGID_28_">
		<use xlink:href="#SVGID_27_"  style="overflow:visible;"/>
	</clipPath>
	<rect x="-0.5" y="49.6" class="st13" width="25.3" height="25.3"/>
</g>
<g>
	<defs>
		<circle id="SVGID_29_" cx="12.1" cy="62.2" r="7.1"/>
	</defs>
	<clipPath id="SVGID_30_">
		<use xlink:href="#SVGID_29_"  style="overflow:visible;"/>
	</clipPath>
	<rect x="0.1" y="50.2" class="st14" width="24.2" height="24.2"/>
</g>
</svg>
