<?xml version="1.0" encoding="utf-8"?>
<!-- Generator: Adobe Illustrator 22.1.0, SVG Export Plug-In . SVG Version: 6.00 Build 0)  -->
<svg version="1.1" id="Laag_1" xmlns="http://www.w3.org/2000/svg" xmlns:xlink="http://www.w3.org/1999/xlink" x="0px" y="0px"
	 viewBox="0 0 61.2 94.6" style="enable-background:new 0 0 61.2 94.6;" xml:space="preserve">
<style type="text/css">
	.st0{clip-path:url(#SVGID_2_);}
	.st1{clip-path:url(#SVGID_4_);fill:#555555;}
	.st2{clip-path:url(#SVGID_6_);}
	.st3{clip-path:url(#SVGID_8_);fill:#FFFFFF;}
	.st4{clip-path:url(#SVGID_10_);}
	.st5{clip-path:url(#SVGID_12_);fill:#14A79D;}
	.st6{clip-path:url(#SVGID_14_);}
	.st7{clip-path:url(#SVGID_16_);fill:none;stroke:#FFFFFF;stroke-width:4;stroke-miterlimit:10;}
	.st8{clip-path:url(#SVGID_18_);}
	.st9{clip-path:url(#SVGID_20_);fill:#555555;}
	.st10{clip-path:url(#SVGID_22_);}
	.st11{clip-path:url(#SVGID_24_);fill:#FFFFFF;}
	.st12{clip-path:url(#SVGID_26_);fill:#555555;}
	.st13{clip-path:url(#SVGID_28_);fill:#FFFFFF;}
	.st14{clip-path:url(#SVGID_30_);fill:#00A1B2;}
	.st15{clip-path:url(#SVGID_32_);}
	.st16{clip-path:url(#SVGID_34_);fill:#FFFFFF;}
	.st17{clip-path:url(#SVGID_36_);}
	.st18{clip-path:url(#SVGID_38_);fill:none;stroke:#555555;stroke-width:2;stroke-miterlimit:10;}
	.st19{clip-path:url(#SVGID_40_);}
	.st20{clip-path:url(#SVGID_42_);fill:#00A1B2;}
	.st21{clip-path:url(#SVGID_44_);}
	.st22{clip-path:url(#SVGID_46_);fill:#FFFFFF;}
	.st23{clip-path:url(#SVGID_48_);}
	.st24{clip-path:url(#SVGID_50_);fill:none;stroke:#555555;stroke-width:2;stroke-miterlimit:10;}
	.st25{clip-path:url(#SVGID_52_);}
	.st26{clip-path:url(#SVGID_54_);fill:none;stroke:#E0E0E5;stroke-width:2;stroke-miterlimit:10;}
	.st27{clip-path:url(#SVGID_56_);fill:none;stroke:#E0E0E5;stroke-width:3;stroke-linecap:square;stroke-miterlimit:10;}
	.st28{clip-path:url(#SVGID_58_);}
	.st29{clip-path:url(#SVGID_60_);fill:none;stroke:#E0E0E5;stroke-width:2;stroke-miterlimit:10;}
	.st30{clip-path:url(#SVGID_62_);fill:none;stroke:#E0E0E5;stroke-width:3;stroke-linecap:square;stroke-miterlimit:10;}
</style>
<g>
	<defs>
		<circle id="SVGID_1_" cx="13.1" cy="13.1" r="9.5"/>
	</defs>
	<clipPath id="SVGID_2_">
		<use xlink:href="#SVGID_1_"  style="overflow:visible;"/>
	</clipPath>
	<g class="st0">
		<defs>
			<rect id="SVGID_3_" x="3.6" y="3.6" width="22" height="19"/>
		</defs>
		<clipPath id="SVGID_4_">
			<use xlink:href="#SVGID_3_"  style="overflow:visible;"/>
		</clipPath>
		<rect x="-1.4" y="-1.4" class="st1" width="29" height="29"/>
	</g>
</g>
<g>
	<defs>
		<circle id="SVGID_5_" cx="13.1" cy="13.1" r="7.7"/>
	</defs>
	<clipPath id="SVGID_6_">
		<use xlink:href="#SVGID_5_"  style="overflow:visible;"/>
	</clipPath>
	<g class="st2">
		<defs>
			<rect id="SVGID_7_" x="3.6" y="3.6" width="22" height="19"/>
		</defs>
		<clipPath id="SVGID_8_">
			<use xlink:href="#SVGID_7_"  style="overflow:visible;"/>
		</clipPath>
		<rect x="0.4" y="0.5" class="st3" width="25.3" height="25.3"/>
	</g>
</g>
<g>
	<defs>
		<path id="SVGID_9_" d="M12.4,13.7l8-8.6c0.6-0.5,1.5-0.5,2,0l0,0l0.9,0.8c0.6,0.6,0.6,1.5,0,2l-9.2,9.8c-0.6,0.5-1.5,0.5-2,0
			l-4.7-4.4c-0.6-0.6-0.6-1.5,0-2.1l0.9-0.8c0.6-0.5,1.5-0.5,2,0l3.5,3.2l0,0L12.4,13.7L12.4,13.7z"/>
	</defs>
	<clipPath id="SVGID_10_">
		<use xlink:href="#SVGID_9_"  style="overflow:visible;"/>
	</clipPath>
	<g class="st4">
		<defs>
			<rect id="SVGID_11_" x="3.6" y="3.6" width="22" height="19"/>
		</defs>
		<clipPath id="SVGID_12_">
			<use xlink:href="#SVGID_11_"  style="overflow:visible;"/>
		</clipPath>
		<rect x="3" y="0.7" class="st5" width="24.8" height="21.4"/>
	</g>
</g>
<g>
	<defs>
		<path id="SVGID_13_" d="M21.7,5.8c-0.2-0.2-0.5-0.2-0.6,0l-8,8.6l-3.5-3.2C9.5,11,9.2,11,9,11.2L8.1,12c-0.2,0.2-0.2,0.5,0,0.6
			l4.6,4.4c0.2,0.2,0.5,0.2,0.6,0l9.2-9.7c0.2-0.2,0.2-0.5,0-0.6L21.7,5.8z M-4-6.3h38.8v35.4H-4V-6.3z"/>
	</defs>
	<clipPath id="SVGID_14_">
		<use xlink:href="#SVGID_13_"  style="overflow:visible;"/>
	</clipPath>
	<g class="st6">
		<defs>
			<rect id="SVGID_15_" x="3.6" y="3.6" width="22" height="19"/>
		</defs>
		<clipPath id="SVGID_16_">
			<use xlink:href="#SVGID_15_"  style="overflow:visible;"/>
		</clipPath>
		<path class="st7" d="M21.7,5.8c-0.2-0.2-0.5-0.2-0.6,0l-8,8.6l-3.5-3.2C9.5,11,9.2,11,9,11.2L8.1,12c-0.2,0.2-0.2,0.5,0,0.6
			l4.6,4.4c0.2,0.2,0.5,0.2,0.6,0l9.2-9.7c0.2-0.2,0.2-0.5,0-0.6L21.7,5.8z"/>
	</g>
</g>
<g>
	<defs>
		<circle id="SVGID_17_" cx="13.1" cy="37.1" r="9.5"/>
	</defs>
	<clipPath id="SVGID_18_">
		<use xlink:href="#SVGID_17_"  style="overflow:visible;"/>
	</clipPath>
	<g class="st8">
		<defs>
			<rect id="SVGID_19_" x="3.6" y="27.6" width="19" height="19"/>
		</defs>
		<clipPath id="SVGID_20_">
			<use xlink:href="#SVGID_19_"  style="overflow:visible;"/>
		</clipPath>
		<rect x="-1.4" y="22.6" class="st9" width="29" height="29"/>
	</g>
</g>
<g>
	<defs>
		<circle id="SVGID_21_" cx="13.1" cy="37.1" r="7.7"/>
	</defs>
	<clipPath id="SVGID_22_">
		<use xlink:href="#SVGID_21_"  style="overflow:visible;"/>
	</clipPath>
	<g class="st10">
		<defs>
			<rect id="SVGID_23_" x="3.6" y="27.6" width="19" height="19"/>
		</defs>
		<clipPath id="SVGID_24_">
			<use xlink:href="#SVGID_23_"  style="overflow:visible;"/>
		</clipPath>
		<rect x="0.4" y="24.5" class="st11" width="25.3" height="25.3"/>
	</g>
</g>
<g>
	<defs>
		<circle id="SVGID_25_" cx="13.1" cy="61.1" r="9.5"/>
	</defs>
	<clipPath id="SVGID_26_">
		<use xlink:href="#SVGID_25_"  style="overflow:visible;"/>
	</clipPath>
	<rect x="-1.4" y="46.6" class="st12" width="29" height="29"/>
</g>
<g>
	<defs>
		<circle id="SVGID_27_" cx="13.1" cy="61.1" r="7.7"/>
	</defs>
	<clipPath id="SVGID_28_">
		<use xlink:href="#SVGID_27_"  style="overflow:visible;"/>
	</clipPath>
	<rect x="0.4" y="48.5" class="st13" width="25.3" height="25.3"/>
</g>
<g>
	<defs>
		<circle id="SVGID_29_" cx="13.1" cy="61.1" r="7.1"/>
	</defs>
	<clipPath id="SVGID_30_">
		<use xlink:href="#SVGID_29_"  style="overflow:visible;"/>
	</clipPath>
	<rect x="1" y="49" class="st14" width="24.2" height="24.2"/>
</g>
<g>
	<defs>
		<rect id="SVGID_31_" x="42.3" y="13.6" width="11" height="11"/>
	</defs>
	<clipPath id="SVGID_32_">
		<use xlink:href="#SVGID_31_"  style="overflow:visible;"/>
	</clipPath>
	<g class="st15">
		<defs>
			<rect id="SVGID_33_" x="42.3" y="13.6" width="11" height="11"/>
		</defs>
		<clipPath id="SVGID_34_">
			<use xlink:href="#SVGID_33_"  style="overflow:visible;"/>
		</clipPath>
		<rect x="42.3" y="13.6" class="st16" width="11" height="11"/>
	</g>
</g>
<g>
	<defs>
		<rect id="SVGID_35_" x="42.3" y="13.6" width="11" height="11"/>
	</defs>
	<clipPath id="SVGID_36_">
		<use xlink:href="#SVGID_35_"  style="overflow:visible;"/>
	</clipPath>
	<g class="st17">
		<defs>
			<rect id="SVGID_37_" x="42.3" y="13.6" width="11" height="11"/>
		</defs>
		<clipPath id="SVGID_38_">
			<use xlink:href="#SVGID_37_"  style="overflow:visible;"/>
		</clipPath>
		<rect x="42.3" y="13.6" class="st18" width="11" height="11"/>
	</g>
</g>
<g>
	<defs>
		<rect id="SVGID_39_" x="44.3" y="15.6" width="7" height="7"/>
	</defs>
	<clipPath id="SVGID_40_">
		<use xlink:href="#SVGID_39_"  style="overflow:visible;"/>
	</clipPath>
	<g class="st19">
		<defs>
			<rect id="SVGID_41_" x="42.3" y="13.6" width="11" height="11"/>
		</defs>
		<clipPath id="SVGID_42_">
			<use xlink:href="#SVGID_41_"  style="overflow:visible;"/>
		</clipPath>
		<rect x="39.3" y="10.6" class="st20" width="17" height="17"/>
	</g>
</g>
<g>
	<defs>
		<rect id="SVGID_43_" x="42.3" y="30.6" width="11" height="11"/>
	</defs>
	<clipPath id="SVGID_44_">
		<use xlink:href="#SVGID_43_"  style="overflow:visible;"/>
	</clipPath>
	<g class="st21">
		<defs>
			<rect id="SVGID_45_" x="42.3" y="30.6" width="11" height="11"/>
		</defs>
		<clipPath id="SVGID_46_">
			<use xlink:href="#SVGID_45_"  style="overflow:visible;"/>
		</clipPath>
		<rect x="42.3" y="30.6" class="st22" width="11" height="11"/>
	</g>
</g>
<g>
	<defs>
		<rect id="SVGID_47_" x="42.3" y="30.6" width="11" height="11"/>
	</defs>
	<clipPath id="SVGID_48_">
		<use xlink:href="#SVGID_47_"  style="overflow:visible;"/>
	</clipPath>
	<g class="st23">
		<defs>
			<rect id="SVGID_49_" x="42.3" y="30.6" width="11" height="11"/>
		</defs>
		<clipPath id="SVGID_50_">
			<use xlink:href="#SVGID_49_"  style="overflow:visible;"/>
		</clipPath>
		<rect x="42.3" y="30.6" class="st24" width="11" height="11"/>
	</g>
</g>
<g>
	<defs>
		<rect id="SVGID_51_" x="41.3" y="54" width="14" height="14"/>
	</defs>
	<clipPath id="SVGID_52_">
		<use xlink:href="#SVGID_51_"  style="overflow:visible;"/>
	</clipPath>
	<g class="st25">
		<defs>
			<rect id="SVGID_53_" x="-458.7" y="-581" width="1440" height="1720"/>
		</defs>
		<clipPath id="SVGID_54_">
			<use xlink:href="#SVGID_53_"  style="overflow:visible;"/>
		</clipPath>
		<rect x="41.3" y="54" class="st26" width="14" height="14"/>
	</g>
</g>
<g>
	<defs>
		<rect id="SVGID_55_" x="-458.7" y="-581" width="1440" height="1720"/>
	</defs>
	<clipPath id="SVGID_56_">
		<use xlink:href="#SVGID_55_"  style="overflow:visible;"/>
	</clipPath>
	<line class="st27" x1="48.3" y1="57" x2="48.3" y2="65.1"/>
	<line class="st27" x1="52.3" y1="61" x2="44.3" y2="61"/>
</g>
<g>
	<defs>
		<rect id="SVGID_57_" x="41.3" y="74.6" width="14" height="14"/>
	</defs>
	<clipPath id="SVGID_58_">
		<use xlink:href="#SVGID_57_"  style="overflow:visible;"/>
	</clipPath>
	<g class="st28">
		<defs>
			<rect id="SVGID_59_" x="-458.7" y="-560.5" width="1440" height="1720"/>
		</defs>
		<clipPath id="SVGID_60_">
			<use xlink:href="#SVGID_59_"  style="overflow:visible;"/>
		</clipPath>
		<rect x="41.3" y="74.6" class="st29" width="14" height="14"/>
	</g>
</g>
<g>
	<defs>
		<rect id="SVGID_61_" x="-458.7" y="-560.5" width="1440" height="1720"/>
	</defs>
	<clipPath id="SVGID_62_">
		<use xlink:href="#SVGID_61_"  style="overflow:visible;"/>
	</clipPath>
	<line class="st30" x1="52.3" y1="81.6" x2="44.3" y2="81.6"/>
</g>
</svg>
