<svg width="19" height="19" viewBox="0 0 19 19" version="1.1" xmlns="http://www.w3.org/2000/svg" xmlns:xlink="http://www.w3.org/1999/xlink">
<title>check-circle</title>
<desc>Created using Figma</desc>
<g id="Canvas" transform="translate(468 -8976)">
<g id="check-circle">
<g id="check-circle">
<g id="Path">
<use xlink:href="#path0_fill" transform="translate(-468 8976)" fill="#555555"/>
</g>
<g id="Shape">
<use xlink:href="#path1_fill" transform="translate(-466.161 8977.84)" fill="#FFFFFF"/>
</g>
</g>
</g>
</g>
<defs>
<path id="path0_fill" fill-rule="evenodd" d="M 9.5 0C 4.25328 0 0 4.25328 0 9.5C 0 14.7467 4.25328 19 9.5 19C 14.7467 19 19 14.7467 19 9.5C 19 4.25328 14.7467 0 9.5 0Z"/>
<path id="path1_fill" d="M 7.66129 0C 11.8954 0 15.3226 3.42655 15.3226 7.66129C 15.3226 11.8954 11.896 15.3226 7.66129 15.3226C 3.4272 15.3226 0 11.896 0 7.66129C 0 3.4272 3.42655 0 7.66129 0Z"/>
</defs>
</svg>
